<svg width="14" height="15" viewBox="0 0 14 15" fill="none" xmlns="http://www.w3.org/2000/svg">
<path d="M12.7 14.25L7.975 9.525C7.6 9.825 7.16875 10.0625 6.68125 10.2375C6.19375 10.4125 5.675 10.5 5.125 10.5C3.7625 10.5 2.60938 10.0281 1.66563 9.08438C0.721875 8.14062 0.25 6.9875 0.25 5.625C0.25 4.2625 0.721875 3.10938 1.66563 2.16563C2.60938 1.22188 3.7625 0.75 5.125 0.75C6.4875 0.75 7.64062 1.22188 8.58438 2.16563C9.52812 3.10938 10 4.2625 10 5.625C10 6.175 9.9125 6.69375 9.7375 7.18125C9.5625 7.66875 9.325 8.1 9.025 8.475L13.75 13.2L12.7 14.25ZM5.125 9C6.0625 9 6.85938 8.67188 7.51562 8.01562C8.17188 7.35938 8.5 6.5625 8.5 5.625C8.5 4.6875 8.17188 3.89062 7.51562 3.23438C6.85938 2.57812 6.0625 2.25 5.125 2.25C4.1875 2.25 3.39062 2.57812 2.73438 3.23438C2.07812 3.89062 1.75 4.6875 1.75 5.625C1.75 6.5625 2.07812 7.35938 2.73438 8.01562C3.39062 8.67188 4.1875 9 5.125 9Z" fill="#FE993E"/>
</svg>
