<svg width="44" height="44" viewBox="0 0 44 44" fill="none" xmlns="http://www.w3.org/2000/svg">
<rect width="44" height="44" rx="22" fill="white" fill-opacity="0.05"/>
<path fill-rule="evenodd" clip-rule="evenodd" d="M13.2551 13.2551C13.5952 12.915 14.1467 12.915 14.4868 13.2551L22 20.7683L29.5132 13.2551C29.8533 12.915 30.4048 12.915 30.7449 13.2551C31.085 13.5952 31.085 14.1467 30.7449 14.4868L23.2317 22L30.7449 29.5132C31.085 29.8533 31.085 30.4048 30.7449 30.7449C30.4048 31.085 29.8533 31.085 29.5132 30.7449L22 23.2317L14.4868 30.7449C14.1467 31.085 13.5952 31.085 13.2551 30.7449C12.915 30.4048 12.915 29.8533 13.2551 29.5132L20.7683 22L13.2551 14.4868C12.915 14.1467 12.915 13.5952 13.2551 13.2551Z" fill="white"/>
</svg>
